REM DIRINDEX 1\2,1\3
REM DIRNAME cjc039,folder01,folder02
TITLE ""
FILE "3121-3140.mp3" MP3
  TRACK 01 AUDIO
    TITLE "0:"
    INDEX 01 00:00:00
  TRACK 02 AUDIO
    TITLE "2:cjc039_5241"
    INDEX 01 00:00:25
  TRACK 03 AUDIO
    TITLE "0:"
    INDEX 01 00:01:48
  TRACK 04 AUDIO
    TITLE "3:cjc039_5242"
    INDEX 01 00:02:26
  TRACK 05 AUDIO
    TITLE "0:"
    INDEX 01 00:06:18
  TRACK 06 AUDIO
    TITLE "2:cjc039_5243"
    INDEX 01 00:07:64
  TRACK 07 AUDIO
    TITLE "0:"
    INDEX 01 00:09:30
  TRACK 08 AUDIO
    TITLE "3:cjc039_5244"
    INDEX 01 00:10:00
  TRACK 09 AUDIO
    TITLE "0:"
    INDEX 01 00:14:51
  TRACK 10 AUDIO
    TITLE "2:cjc039_5245"
    INDEX 01 00:16:22
  TRACK 11 AUDIO
    TITLE "0:"
    INDEX 01 00:17:33
  TRACK 12 AUDIO
    TITLE "3:cjc039_5246"
    INDEX 01 00:18:05
  TRACK 13 AUDIO
    TITLE "0:"
    INDEX 01 00:22:15
  TRACK 14 AUDIO
    TITLE "2:cjc039_5247"
    INDEX 01 00:23:67
  TRACK 15 AUDIO
    TITLE "0:"
    INDEX 01 00:25:17
  TRACK 16 AUDIO
    TITLE "3:cjc039_5248"
    INDEX 01 00:25:62
  TRACK 17 AUDIO
    TITLE "0:"
    INDEX 01 00:29:09
  TRACK 18 AUDIO
    TITLE "2:cjc039_5249"
    INDEX 01 00:30:55
  TRACK 19 AUDIO
    TITLE "0:"
    INDEX 01 00:31:51
  TRACK 20 AUDIO
    TITLE "3:cjc039_5250"
    INDEX 01 00:32:25
  TRACK 21 AUDIO
    TITLE "0:"
    INDEX 01 00:36:09
  TRACK 22 AUDIO
    TITLE "2:cjc039_5251"
    INDEX 01 00:37:61
  TRACK 23 AUDIO
    TITLE "0:"
    INDEX 01 00:39:09
  TRACK 24 AUDIO
    TITLE "3:cjc039_5252"
    INDEX 01 00:39:54
  TRACK 25 AUDIO
    TITLE "0:"
    INDEX 01 00:43:39
  TRACK 26 AUDIO
    TITLE "2:cjc039_5253"
    INDEX 01 00:45:14
  TRACK 27 AUDIO
    TITLE "0:"
    INDEX 01 00:46:21
  TRACK 28 AUDIO
    TITLE "3:cjc039_5254"
    INDEX 01 00:46:70
  TRACK 29 AUDIO
    TITLE "0:"
    INDEX 01 00:50:15
  TRACK 30 AUDIO
    TITLE "2:cjc039_5255"
    INDEX 01 00:51:65
  TRACK 31 AUDIO
    TITLE "0:"
    INDEX 01 00:53:04
  TRACK 32 AUDIO
    TITLE "3:cjc039_5256"
    INDEX 01 00:53:55
  TRACK 33 AUDIO
    TITLE "0:"
    INDEX 01 00:57:56
  TRACK 34 AUDIO
    TITLE "2:cjc039_5257"
    INDEX 01 00:59:36
  TRACK 35 AUDIO
    TITLE "0:"
    INDEX 01 01:00:45
  TRACK 36 AUDIO
    TITLE "3:cjc039_5258"
    INDEX 01 01:01:21
  TRACK 37 AUDIO
    TITLE "0:"
    INDEX 01 01:04:60
  TRACK 38 AUDIO
    TITLE "2:cjc039_5259"
    INDEX 01 01:06:36
  TRACK 39 AUDIO
    TITLE "0:"
    INDEX 01 01:07:63
  TRACK 40 AUDIO
    TITLE "3:cjc039_5260"
    INDEX 01 01:08:38
  TRACK 41 AUDIO
    TITLE "0:"
    INDEX 01 01:12:54
  TRACK 42 AUDIO
    TITLE "2:cjc039_5261"
    INDEX 01 01:14:29
  TRACK 43 AUDIO
    TITLE "0:"
    INDEX 01 01:15:44
  TRACK 44 AUDIO
    TITLE "3:cjc039_5262"
    INDEX 01 01:16:18
  TRACK 45 AUDIO
    TITLE "0:"
    INDEX 01 01:19:34
  TRACK 46 AUDIO
    TITLE "2:cjc039_5263"
    INDEX 01 01:21:10
  TRACK 47 AUDIO
    TITLE "0:"
    INDEX 01 01:22:72
  TRACK 48 AUDIO
    TITLE "3:cjc039_5264"
    INDEX 01 01:23:46
  TRACK 49 AUDIO
    TITLE "0:"
    INDEX 01 01:28:51
  TRACK 50 AUDIO
    TITLE "2:cjc039_5265"
    INDEX 01 01:30:28
  TRACK 51 AUDIO
    TITLE "0:"
    INDEX 01 01:31:47
  TRACK 52 AUDIO
    TITLE "3:cjc039_5266"
    INDEX 01 01:32:29
  TRACK 53 AUDIO
    TITLE "0:"
    INDEX 01 01:36:54
  TRACK 54 AUDIO
    TITLE "2:cjc039_5267"
    INDEX 01 01:38:30
  TRACK 55 AUDIO
    TITLE "0:"
    INDEX 01 01:40:03
  TRACK 56 AUDIO
    TITLE "3:cjc039_5268"
    INDEX 01 01:40:52
  TRACK 57 AUDIO
    TITLE "0:"
    INDEX 01 01:44:72
  TRACK 58 AUDIO
    TITLE "2:cjc039_5269"
    INDEX 01 01:46:49
  TRACK 59 AUDIO
    TITLE "0:"
    INDEX 01 01:47:72
  TRACK 60 AUDIO
    TITLE "3:cjc039_5270"
    INDEX 01 01:48:46
  TRACK 61 AUDIO
    TITLE "0:"
    INDEX 01 01:52:12
  TRACK 62 AUDIO
    TITLE "2:cjc039_5271"
    INDEX 01 01:53:69
  TRACK 63 AUDIO
    TITLE "0:"
    INDEX 01 01:55:09
  TRACK 64 AUDIO
    TITLE "3:cjc039_5272"
    INDEX 01 01:55:62
  TRACK 65 AUDIO
    TITLE "0:"
    INDEX 01 02:00:06
  TRACK 66 AUDIO
    TITLE "2:cjc039_5273"
    INDEX 01 02:01:56
  TRACK 67 AUDIO
    TITLE "0:"
    INDEX 01 02:02:71
  TRACK 68 AUDIO
    TITLE "3:cjc039_5274"
    INDEX 01 02:03:51
  TRACK 69 AUDIO
    TITLE "0:"
    INDEX 01 02:07:12
  TRACK 70 AUDIO
    TITLE "2:cjc039_5275"
    INDEX 01 02:08:62
  TRACK 71 AUDIO
    TITLE "0:"
    INDEX 01 02:10:24
  TRACK 72 AUDIO
    TITLE "3:cjc039_5276"
    INDEX 01 02:11:02
  TRACK 73 AUDIO
    TITLE "0:"
    INDEX 01 02:15:45
  TRACK 74 AUDIO
    TITLE "2:cjc039_5277"
    INDEX 01 02:17:28
  TRACK 75 AUDIO
    TITLE "0:"
    INDEX 01 02:18:33
  TRACK 76 AUDIO
    TITLE "3:cjc039_5278"
    INDEX 01 02:19:13
  TRACK 77 AUDIO
    TITLE "0:"
    INDEX 01 02:22:37
  TRACK 78 AUDIO
    TITLE "2:cjc039_5279"
    INDEX 01 02:24:04
  TRACK 79 AUDIO
    TITLE "0:"
    INDEX 01 02:25:49
  TRACK 80 AUDIO
    TITLE "3:cjc039_5280"
    INDEX 01 02:26:27
  TRACK 81 AUDIO
    TITLE "0:"
    INDEX 01 02:29:62
